<?xml version="1.0" encoding="UTF-8"?>
<svg xmlns="http://www.w3.org/2000/svg" xmlns:xlink="http://www.w3.org/1999/xlink" width="56px" height="60px" viewBox="0 0 56 60" version="1.1"  >
    <title>002 - Down Arrow</title>
    <desc>Created with Sketch.</desc>
    <g id="Page-1" stroke="none" stroke-width="1" fill="none" fill-rule="evenodd"  >
        <g id="002---Down-Arrow">
            <g id="Icons_copy" transform="translate(1.000000, 1.000000) ">
                <path d="M52.41,33.414 L28.41,57.414 C27.6290003,58.1947639 26.3629997,58.1947639 25.582,57.414 L1.582,33.414 C1.00966718,32.8414969 0.838892388,31.9804407 1.14940688,31.2328409 C1.45992136,30.4852412 2.19048005,29.9985525 3,30 L8,30 L8,2 C8,0.8954305 8.8954305,2.22044605e-16 10,0 L44,0 C45.1045695,0 46,0.8954305 46,2 L46,30 L51,30 C51.808064,30.0017867 52.5356625,30.4896608 52.8441256,31.2365351 C53.1525886,31.9834094 52.9813046,32.8425268 52.41,33.414 Z" id="Path" fill="#FFDC00"/>
                <path d="M51,30 L48,30 C48.8087918,30.0001727 49.5378681,30.487455 49.847356,31.2346909 C50.1568438,31.9819268 49.9858158,32.8420115 49.414,33.414 L25.5,57.328 L25.586,57.414 C26.3669997,58.1947639 27.6330003,58.1947639 28.414,57.414 L52.414,33.414 C52.9858158,32.8420115 53.1568438,31.9819268 52.847356,31.2346909 C52.5378681,30.487455 51.8087918,30.0001727 51,30 Z" id="Path" fill="#FF8401"/>
                <path d="M43,2 L43,30 L46,30 L46,2 C46,0.8954305 45.1045695,0 44,0 L41,0 C42.1045695,0 43,0.8954305 43,2 Z" id="Path" fill="#FF8401"/>
                <path d="M40.992,13.09 C40.9960552,13.9041486 40.6745425,14.6861482 40.099,15.262 L18.263,37.1 C17.3825813,37.9864756 16.0532048,38.2518936 14.899876,37.771468 C13.7465473,37.2910424 12.998726,36.1603558 13.008,34.911 C13.0042338,34.0966137 13.3256823,33.3144103 13.901,32.738 L35.737,10.9 C36.6174187,10.0135244 37.9467952,9.74810635 39.100124,10.228532 C40.2534527,10.7089576 41.001274,11.8396442 40.992,13.089 L40.992,13.09 Z" id="Path" fill="#FFFFFF"/>
                <path d="M40.1,10.9 C39.1225801,9.92951498 37.6198763,9.72539873 36.419,10.4 C36.6677536,10.5348086 36.8968809,10.7030372 37.1,10.9 C38.2904727,12.1099338 38.2904727,14.0510662 37.1,15.261 L15.263,37.1 C15.0598809,37.2969628 14.8307536,37.4651914 14.582,37.6 C15.7828763,38.2746013 17.2855801,38.070485 18.263,37.1 L40.1,15.262 C41.2904727,14.0520662 41.2904727,12.1109338 40.1,10.901 L40.1,10.9 Z" id="Path" fill="#CCCCCC"/>
                <circle id="Oval" fill="#FFFFFF" cx="17.5" cy="14.5" r="4.5"/>
                <path d="M17.5,10 C16.9878328,10.0048915 16.4803641,10.0982658 16,10.276 C17.7962,10.903062 18.9993814,12.5974908 18.9993814,14.5 C18.9993814,16.4025092 17.7962,18.096938 16,18.724 C16.4803641,18.9017342 16.9878328,18.9951085 17.5,19 C19.9852813,18.9999999 21.9999999,16.9852813 21.9999999,14.5 C21.9999999,12.0147187 19.9852813,10.0000001 17.5,10 Z" id="Path" fill="#CCCCCC"/>
                <circle id="Oval" fill="#FFFFFF" cx="36.5" cy="33.5" r="4.5"/>
                <path d="M36.5,29 C35.9878328,29.0048915 35.4803641,29.0982658 35,29.276 C36.7962,29.903062 37.9993814,31.5974908 37.9993814,33.5 C37.9993814,35.4025092 36.7962,37.096938 35,37.724 C35.4803641,37.9017342 35.9878328,37.9951085 36.5,38 C38.9852813,37.9999999 40.9999999,35.9852813 40.9999999,33.5 C40.9999999,31.0147187 38.9852813,29.0000001 36.5,29 Z" id="Path" fill="#CCCCCC"/>
            </g>
            <g id="Icons_copy_2" transform="translate(2.000000, 1.000000) rotate(90)" fill="#FFFFFF" >
                <path d="M10,2 C10,0.8954305 10.8954305,2.22044605e-16 12,0 L9,0 C7.8954305,-1.11022302e-16 7,0.8954305 7,2 L7,30 L10,30 L10,2 Z" id="Path"/>
                <path d="M24.5,57.328 L24.586,57.414 C25.3669997,58.1947639 26.6330003,58.1947639 27.414,57.414 L27.5,57.328 L3.59,33.414 C3.01869536,32.8425268 2.84741141,31.9834094 3.15587443,31.2365351 C3.46433746,30.4896608 4.19193597,30.0017867 5,30 L2,30 C1.19193597,30.0017867 0.464337459,30.4896608 0.155874433,31.2365351 C-0.152588593,31.9834094 0.0186953602,32.8425268 0.59,33.414 L24.5,57.328 Z" id="Path"/>
            </g>
            <g id="Icons">
                <rect id="Rectangle" fill="#FFFFFF" transform="translate(23.758053, 55.585600) rotate(-44.995000) translate(-23.758053, -55.585600) " x="22.7580532" y="51.5856005" width="2" height="8"/>
                <path d="M23.778,56.585 C23.2257153,56.5877614 22.7757614,56.1422847 22.773,55.59 C22.7702386,55.0377153 23.2157153,54.5877614 23.768,54.585 L23.778,54.585 C24.3302847,54.585 24.778,55.0327153 24.778,55.585 C24.778,56.1372847 24.3302847,56.585 23.778,56.585 Z" id="Path" fill="#000000"/>
                <path d="M1.232,31.852 C0.754207884,32.9716619 1.01272304,34.2697972 1.883,35.121 L20.222,53.464 C20.6124653,53.8547414 21.2457585,53.8549653 21.6365,53.4645 C22.0272414,53.0740347 22.0274653,52.4407415 21.637,52.05 L3.3,33.707 C3.01497415,33.4219089 2.92900619,32.9935507 3.08196055,32.6205606 C3.23491491,32.2475704 3.59687684,32.0028976 4,32 L9,32 C9.55228475,32 10,31.5522847 10,31 L10,3 C10,2.44771525 10.4477153,2 11,2 L45,2 C45.5522847,2 46,2.44771525 46,3 L46,31 C46,31.5522847 46.4477153,32 47,32 L52,32 C52.4043959,32.0000863 52.7689341,32.2437275 52.923678,32.6173454 C53.0784219,32.9909634 52.9929079,33.4210057 52.707,33.707 L28.707,57.707 C28.311519,58.0851625 27.688481,58.0851625 27.293,57.707 C26.9025347,57.3162586 26.2692415,57.3160347 25.8785,57.7065 C25.4877586,58.0969653 25.4875347,58.7302585 25.878,59.121 C26.4406237,59.683719 27.2037625,59.9998593 27.9995,59.9998593 C28.7952375,59.9998593 29.5583763,59.683719 30.121,59.121 L54.121,35.121 C54.9787237,34.2630172 55.2352657,32.9728902 54.7710339,31.8520363 C54.3068022,30.7311825 53.2131877,30.000259 52,30 L48,30 L48,3 C48,1.34314575 46.6568542,3.04461744e-15 45,0 L11,0 C9.34314575,-1.01453063e-16 8,1.34314575 8,3 L8,30 L4,30 C2.78410423,29.988804 1.68556184,30.7238114 1.232,31.852 Z" id="Path" fill="#000000"/>
                <path d="M17.082,40 C18.1651546,40.0019462 19.2044507,39.5722649 19.97,38.806 L41.806,16.97 C43.4009983,15.3750016 43.4009982,12.7889984 41.8059999,11.1940001 C40.2110016,9.59900176 37.6249984,9.59900172 36.03,11.194 L14.194,33.03 C13.0252128,34.1974987 12.675351,35.9543647 13.3077196,37.4805452 C13.9400882,39.0067256 15.4299967,40.0012879 17.082,40 Z M15.608,34.444 L37.444,12.608 C38.0384108,12.007389 38.9377743,11.8274584 39.7175057,12.1531523 C40.4972372,12.4788462 41.0014073,13.245033 40.992,14.09 C40.9955603,14.6388439 40.7795259,15.1663279 40.392,15.555 L18.556,37.392 C17.9615892,37.992611 17.0622257,38.1725416 16.2824943,37.8468477 C15.5027628,37.5211538 14.9985927,36.754967 15.008,35.91 C15.0046177,35.3608963 15.220605,34.8331675 15.608,34.444 Z" id="Shape" fill="#000000" fill-rule="nonzero"/>
                <path d="M18.5,21 C21.5375661,21 24,18.5375661 24,15.5 C24,12.4624339 21.5375661,10 18.5,10 C15.4624339,10 13,12.4624339 13,15.5 C13.0033068,18.5361953 15.4638047,20.9966932 18.5,21 Z M18.5,12 C20.4329966,12 22,13.5670034 22,15.5 C22,17.4329966 20.4329966,19 18.5,19 C16.5670034,19 15,17.4329966 15,15.5 C15,13.5670034 16.5670034,12 18.5,12 Z" id="Shape" fill="#000000" fill-rule="nonzero"/>
                <path d="M37.5,29 C34.4624339,29 32,31.4624339 32,34.5 C32,37.5375661 34.4624339,40 37.5,40 C40.5375661,40 43,37.5375661 43,34.5 C42.9966932,31.4638047 40.5361953,29.0033068 37.5,29 Z M37.5,38 C35.5670034,38 34,36.4329966 34,34.5 C34,32.5670034 35.5670034,31 37.5,31 C39.4329966,31 41,32.5670034 41,34.5 C41,36.4329966 39.4329966,38 37.5,38 Z" id="Shape" fill="#000000" fill-rule="nonzero"/>
                <path d="M5,28 C5.55228475,28 6,27.5522847 6,27 L6,6 C6,5.44771525 5.55228475,5 5,5 C4.44771525,5 4,5.44771525 4,6 L4,27 C4,27.5522847 4.44771525,28 5,28 Z" id="Path" fill="#000000"/>
                <path d="M1,28 C1.55228475,28 2,27.5522847 2,27 L2,13 C2,12.4477153 1.55228475,12 1,12 C0.44771525,12 0,12.4477153 0,13 L0,27 C0,27.5522847 0.44771525,28 1,28 Z" id="Path" fill="#000000"/>
                <path d="M51,28 C51.5522847,28 52,27.5522847 52,27 L52,6 C52,5.44771525 51.5522847,5 51,5 C50.4477153,5 50,5.44771525 50,6 L50,27 C50,27.5522847 50.4477153,28 51,28 Z" id="Path" fill="#000000"/>
                <path d="M55,28 C55.5522847,28 56,27.5522847 56,27 L56,13 C56,12.4477153 55.5522847,12 55,12 C54.4477153,12 54,12.4477153 54,13 L54,27 C54,27.5522847 54.4477153,28 55,28 Z" id="Path" fill="#000000"/>
            </g>
        </g>
    </g>
</svg>
